<?xml version="1.0" encoding="utf-8"?>
<!-- Generator: Adobe Illustrator 28.0.0, SVG Export Plug-In . SVG Version: 6.00 Build 0)  -->
<svg version="1.1" id="Layer_1" xmlns="http://www.w3.org/2000/svg" xmlns:xlink="http://www.w3.org/1999/xlink" x="0px" y="0px"
	 viewBox="0 0 1200 1009.77" style="enable-background:new 0 0 1200 1009.77;" xml:space="preserve">
<style type="text/css">
	.st0{fill:#1A91F0;}
	.st1{fill:#282B8F;}
</style>
<g>
	<path class="st0" d="M1151.07,148.88C1049.43,316.67,952.3,487.27,853.41,656.76c-45.58,78.2-90.9,156.52-136.87,234.45
		c-22.92,38.9-51.15,40.21-74.66,2.88c-90.25-142.9-179.9-286.13-269.75-429.35c-2.16-3.47-3.54-7.47-9.1-19.32
		c63.33,0,120.04-1.77,176.5,1.24c14.28,0.79,31.89,13.88,40.67,26.46c26.2,37.46,48.4,77.67,72.82,116.38
		c16.77,26.59,28.49,26.59,44.53-0.66C770.5,464.81,843.2,340.57,915.5,216.14c15.32-26.33,10.09-34.84-20.7-35.36
		c-38.77-0.59-77.61-0.13-122.99-0.13c31.89-54.82,59.99-104.85,90.25-153.57c4.06-6.61,18.4-9.5,28.1-9.63
		c61.1-0.85,122.53,3.67,183.18-1.38C1149.36,9.78,1190.75,83.26,1151.07,148.88z"/>
	<path class="st1" d="M770.7,190.27c-33.14,55.67-62.28,106.75-94.11,156c-5.04,7.86-22.27,10.87-33.92,11
		c-121.16,0.72-242.25,0.65-363.4,0.33c-25.74-0.13-51.02-0.33-65.88,25.87c-14.8,26.06-2.68,47.74,11.07,69.81
		c74.46,119.39,148.01,239.37,223.06,358.36c11.53,18.27,13.03,31.7,0.85,49.9c-18.21,27.11-32.68,56.71-50.43,84.15
		c-20.69,32.09-54.16,32.94-73.68,0.52C234.8,797.69,142.78,650.47,58.96,498.8C-13.15,368.34,76.7,199.44,225.3,192.3
		C404.74,183.66,584.84,190.27,770.7,190.27z"/>
</g>
</svg>
